<svg xmlns="http://www.w3.org/2000/svg" xmlns:xlink="http://www.w3.org/1999/xlink" width="500" zoomAndPan="magnify" viewBox="0 0 375 374.999991" height="500" preserveAspectRatio="xMidYMid meet" version="1.0"><defs><filter x="0%" y="0%" width="100%" height="100%" id="577ff9c542"><feColorMatrix values="0 0 0 0 1 0 0 0 0 1 0 0 0 0 1 0 0 0 1 0" color-interpolation-filters="sRGB"/></filter><g/><clipPath id="76c9b7b05e"><path d="M 30 137 L 179.984375 137 L 179.984375 242 L 30 242 Z M 30 137 " clip-rule="nonzero"/></clipPath><clipPath id="69d52b9058"><path d="M 93 150 L 179.984375 150 L 179.984375 217 L 93 217 Z M 93 150 " clip-rule="nonzero"/></clipPath><mask id="06395dc1e2"><g filter="url(#577ff9c542)"><rect x="-37.5" width="450" fill="#000000" y="-37.499999" height="449.999989" fill-opacity="0.4"/></g></mask><clipPath id="75b608defd"><path d="M 1 0.238281 L 86.984375 0.238281 L 86.984375 66.960938 L 1 66.960938 Z M 1 0.238281 " clip-rule="nonzero"/></clipPath><clipPath id="a9c11cd3f9"><rect x="0" width="87" y="0" height="67"/></clipPath><clipPath id="3bef94f663"><path d="M 29.984375 136 L 179.984375 136 L 179.984375 242.523438 L 29.984375 242.523438 Z M 29.984375 136 " clip-rule="nonzero"/></clipPath></defs><g clip-path="url(#76c9b7b05e)"><path fill="#004aad" d="M 179.039062 187.300781 L 178.988281 187.34375 C 178.957031 197.207031 171.816406 207.601562 157.800781 215.675781 L 112.984375 241.503906 L 97.5625 232.617188 L 112.984375 223.730469 L 112.984375 222.875 L 97.5625 213.988281 L 141.644531 188.582031 C 145.851562 186.160156 149.042969 183.394531 151.257812 180.5 C 149.800781 178.828125 147.921875 177.273438 145.542969 175.902344 L 144.757812 175.449219 C 130.890625 167.457031 106.445312 168.46875 90.433594 177.699219 L 46.351562 203.101562 L 30.929688 194.214844 L 45.011719 183.703125 L 30.929688 175.585938 L 75.746094 149.757812 C 101.402344 134.972656 140.574219 133.351562 162.792969 146.15625 L 164.050781 146.882812 C 173.761719 152.476562 178.691406 159.941406 179.023438 167.804688 L 179.023438 167.800781 L 179.023438 167.804688 C 179.035156 168.117188 179.023438 168.429688 179.023438 168.742188 Z M 179.039062 187.300781 " fill-opacity="1" fill-rule="nonzero"/></g><path fill="#d9d9d9" d="M 47.855469 165.832031 L 63.253906 174.71875 L 63.253906 193.347656 L 46.351562 203.105469 L 30.929688 194.214844 L 30.929688 175.585938 Z M 114.488281 204.238281 L 97.566406 213.992188 L 97.5625 213.988281 L 97.5625 232.617188 L 112.984375 241.503906 L 112.984375 241.511719 L 129.886719 231.757812 L 129.886719 213.128906 Z M 114.488281 204.238281 " fill-opacity="1" fill-rule="nonzero"/><g clip-path="url(#69d52b9058)"><g mask="url(#06395dc1e2)"><g transform="matrix(1, 0, 0, 1, 93, 150)"><g clip-path="url(#a9c11cd3f9)"><g clip-path="url(#75b608defd)"><path fill="#000000" d="M 62.5625 18.191406 C 63.417969 22.453125 62.191406 26.90625 59.011719 31.066406 C 58.832031 31.304688 58.550781 31.4375 58.261719 31.4375 C 58.210938 31.4375 58.15625 31.433594 58.105469 31.425781 L 58.101562 31.425781 C 57.886719 31.390625 57.6875 31.28125 57.542969 31.113281 C 56.097656 29.457031 54.253906 27.976562 52.074219 26.71875 L 51.289062 26.265625 C 40.96875 20.320312 24.023438 19.324219 9.125 23.789062 C 8.988281 23.828125 8.851562 23.839844 8.714844 23.820312 C 8.386719 23.773438 8.050781 23.546875 7.921875 23.242188 L 1.222656 7.105469 C 1.027344 6.632812 1.246094 6.089844 1.714844 5.882812 C 17.9375 -1.292969 39.65625 -1.242188 52.230469 6.003906 L 53.015625 6.460938 C 58.335938 9.523438 61.636719 13.582031 62.5625 18.191406 Z M 86.96875 19.445312 C 86.984375 18.90625 86.984375 18.367188 86.964844 17.828125 C 86.945312 17.320312 86.601562 16.957031 86.003906 16.925781 C 85.488281 16.933594 85.078125 17.355469 85.078125 17.867188 L 85.082031 19.414062 C 84.714844 29.09375 77.242188 38.789062 64.332031 46.230469 C 64.039062 46.398438 63.859375 46.710938 63.859375 47.046875 L 63.859375 65.675781 C 63.859375 66.011719 64.039062 66.324219 64.332031 66.492188 C 64.476562 66.578125 64.640625 66.617188 64.800781 66.617188 C 64.964844 66.617188 65.128906 66.578125 65.273438 66.492188 C 78.886719 58.644531 86.761719 48.140625 86.925781 37.625 C 86.964844 37.519531 86.984375 37.410156 86.984375 37.296875 Z M 86.96875 19.445312 " fill-opacity="1" fill-rule="nonzero"/></g></g></g></g></g><g clip-path="url(#3bef94f663)"><path fill="#000000" d="M 179.984375 184.109375 L 179.980469 184.089844 L 179.96875 169.027344 C 179.96875 168.902344 179.984375 168.777344 179.984375 168.652344 C 179.984375 168.5 179.96875 168.34375 179.964844 168.191406 L 179.964844 167.800781 C 179.964844 167.78125 179.949219 167.761719 179.949219 167.742188 C 179.582031 159.28125 174.148438 151.613281 164.523438 146.066406 L 163.265625 145.339844 C 140.730469 132.351562 101.257812 133.96875 75.273438 148.941406 L 47.382812 165.015625 L 30.457031 174.769531 C 30.164062 174.9375 29.984375 175.25 29.984375 175.585938 L 29.984375 194.214844 C 29.984375 194.226562 29.992188 194.234375 29.992188 194.242188 C 29.992188 194.253906 29.984375 194.261719 29.988281 194.273438 C 29.992188 194.371094 30.039062 194.460938 30.074219 194.550781 C 30.09375 194.597656 30.09375 194.652344 30.121094 194.695312 C 30.203125 194.832031 30.316406 194.949219 30.457031 195.03125 L 45.878906 203.917969 C 46.023438 204.003906 46.1875 204.046875 46.351562 204.046875 C 46.351562 204.046875 46.351562 204.042969 46.351562 204.042969 C 46.515625 204.042969 46.679688 204.003906 46.824219 203.917969 L 90.90625 178.515625 C 106.699219 169.414062 130.648438 168.40625 144.289062 176.265625 L 145.074219 176.71875 C 147.054688 177.859375 148.707031 179.144531 150.039062 180.539062 C 147.886719 183.15625 144.898438 185.617188 141.171875 187.765625 L 97.089844 213.171875 C 96.796875 213.339844 96.617188 213.652344 96.617188 213.988281 L 96.617188 232.617188 C 96.617188 232.953125 96.796875 233.265625 97.089844 233.433594 L 112.496094 242.3125 C 112.503906 242.316406 112.503906 242.324219 112.511719 242.328125 C 112.65625 242.410156 112.820312 242.453125 112.984375 242.453125 C 113.144531 242.453125 113.308594 242.410156 113.457031 242.328125 L 121.105469 237.910156 L 158.273438 216.492188 C 171.886719 208.644531 179.761719 198.140625 179.925781 187.625 C 179.964844 187.519531 179.984375 187.410156 179.984375 187.296875 L 179.980469 184.113281 C 179.980469 184.113281 179.984375 184.113281 179.984375 184.109375 Z M 130.832031 230.132812 L 130.832031 213.679688 L 158.273438 197.863281 C 164.90625 194.039062 170.160156 189.59375 173.847656 184.828125 C 173.875 184.804688 173.90625 184.789062 173.929688 184.765625 C 174.722656 183.804688 175.464844 183.320312 176.128906 183.320312 C 176.128906 183.320312 176.128906 183.320312 176.132812 183.320312 C 176.730469 183.320312 177.390625 183.738281 178.09375 184.527344 L 178.097656 187.027344 C 178.058594 187.128906 178.042969 187.234375 178.042969 187.34375 C 178.015625 197.261719 170.464844 207.289062 157.332031 214.859375 Z M 64.199219 191.730469 L 64.199219 185.054688 C 64.644531 178.71875 67.570312 173.832031 73.148438 170.117188 L 90.90625 159.886719 C 106.699219 150.785156 130.644531 149.777344 144.289062 157.636719 L 145.074219 158.089844 C 150.800781 161.390625 153.957031 165.925781 153.957031 170.859375 C 153.957031 173.609375 152.988281 176.375 151.1875 179.015625 C 149.769531 177.582031 148.050781 176.261719 146.015625 175.089844 L 145.230469 174.632812 C 131.070312 166.472656 106.277344 167.480469 89.960938 176.882812 Z M 31.871094 193.671875 L 31.871094 177.21875 L 36.832031 180.078125 L 43.300781 183.804688 L 44.1875 184.316406 L 45.078125 184.828125 L 45.40625 185.019531 L 45.40625 201.472656 Z M 47.855469 166.917969 L 58.042969 172.796875 L 58.929688 173.3125 L 59.816406 173.820312 L 61.367188 174.71875 L 49.242188 181.714844 L 46.65625 183.207031 L 46.351562 183.386719 L 45.832031 183.089844 L 44.945312 182.574219 L 37.777344 178.445312 L 32.816406 175.585938 Z M 47.292969 185.019531 L 47.292969 185.015625 L 51.046875 182.851562 L 62.308594 176.355469 L 62.308594 176.367188 L 62.3125 185.003906 L 62.3125 192.804688 L 47.292969 201.472656 Z M 151.882812 181.242188 C 152.085938 180.984375 152.28125 180.722656 152.46875 180.460938 C 154.664062 177.390625 155.84375 174.125 155.84375 170.859375 C 155.84375 165.226562 152.351562 160.109375 146.015625 156.460938 L 145.230469 156.003906 C 131.070312 147.84375 106.277344 148.851562 89.960938 158.253906 L 63.265625 173.636719 L 61.457031 172.59375 L 60.574219 172.085938 L 59.683594 171.570312 L 49.742188 165.832031 L 76.21875 150.574219 C 101.679688 135.898438 140.304688 134.28125 162.320312 146.972656 L 163.578125 147.695312 C 172.453125 152.808594 177.539062 159.765625 178.046875 167.386719 C 178.074219 167.78125 178.09375 168.179688 178.09375 168.574219 C 178.09375 168.601562 178.097656 168.628906 178.097656 168.652344 C 178.097656 169.050781 178.066406 169.449219 178.039062 169.847656 C 177.960938 171.175781 177.75 172.503906 177.40625 173.824219 C 176.34375 177.59375 173.070312 182.652344 172.507812 183.5 C 168.972656 188.132812 163.839844 192.480469 157.332031 196.230469 L 129.894531 212.042969 L 128.445312 211.207031 L 127.578125 210.707031 L 126.707031 210.203125 L 116.371094 204.238281 L 142.117188 189.398438 C 145.910156 187.210938 149 184.699219 151.277344 182 C 151.492188 181.75 151.683594 181.496094 151.882812 181.242188 Z M 128.945312 231.210938 L 120.753906 235.941406 L 113.925781 239.878906 L 113.925781 223.425781 L 117.683594 221.261719 L 122.804688 218.304688 L 124.46875 217.34375 L 128.945312 214.761719 Z M 126.035156 211.992188 L 126.902344 212.492188 L 128.003906 213.128906 L 121.96875 216.609375 L 121.40625 216.933594 L 121.296875 216.996094 L 117.195312 219.367188 L 113.292969 221.617188 L 112.988281 221.789062 L 112.984375 221.792969 L 112.878906 221.734375 L 99.449219 213.996094 L 99.457031 213.992188 L 114.488281 205.328125 L 125.164062 211.488281 Z M 98.503906 232.074219 L 98.503906 215.628906 L 111.832031 223.304688 L 112.039062 223.425781 L 112.039062 239.871094 L 101.1875 233.621094 Z M 98.503906 232.074219 " fill-opacity="1" fill-rule="nonzero"/></g><g fill="#000000" fill-opacity="1"><g transform="translate(205.13085, 178.477253)"><g><path d="M 15.609375 0.40625 C 12.972656 0.40625 10.648438 -0.140625 8.640625 -1.234375 C 6.640625 -2.328125 5.070312 -3.96875 3.9375 -6.15625 C 2.8125 -8.351562 2.25 -11.0625 2.25 -14.28125 C 2.25 -17.5 2.8125 -20.203125 3.9375 -22.390625 C 5.070312 -24.585938 6.640625 -26.234375 8.640625 -27.328125 C 10.648438 -28.421875 12.972656 -28.96875 15.609375 -28.96875 C 18.359375 -28.96875 20.691406 -28.429688 22.609375 -27.359375 C 24.523438 -26.285156 25.894531 -24.644531 26.71875 -22.4375 L 22.59375 -19.921875 L 22.109375 -19.9375 C 21.492188 -21.425781 20.660156 -22.492188 19.609375 -23.140625 C 18.566406 -23.785156 17.234375 -24.109375 15.609375 -24.109375 C 13.234375 -24.109375 11.378906 -23.320312 10.046875 -21.75 C 8.722656 -20.175781 8.0625 -17.6875 8.0625 -14.28125 C 8.0625 -10.882812 8.722656 -8.398438 10.046875 -6.828125 C 11.378906 -5.253906 13.234375 -4.46875 15.609375 -4.46875 C 19.316406 -4.46875 21.585938 -6.273438 22.421875 -9.890625 L 22.90625 -9.890625 L 27.078125 -7.71875 C 26.296875 -5.007812 24.957031 -2.976562 23.0625 -1.625 C 21.175781 -0.269531 18.691406 0.40625 15.609375 0.40625 Z M 15.609375 0.40625 "/></g></g></g><g fill="#000000" fill-opacity="1"><g transform="translate(233.135925, 178.477253)"><g><path d="M 8.953125 0.40625 C 7.003906 0.40625 5.519531 -0.113281 4.5 -1.15625 C 3.476562 -2.207031 2.96875 -3.800781 2.96875 -5.9375 L 2.96875 -30.203125 L 8.375 -30.203125 L 8.375 -6.15625 C 8.375 -4.84375 8.921875 -4.1875 10.015625 -4.1875 C 10.328125 -4.1875 10.660156 -4.238281 11.015625 -4.34375 L 11.296875 -4.265625 L 11.78125 -0.09375 C 11.476562 0.0625 11.078125 0.179688 10.578125 0.265625 C 10.085938 0.359375 9.546875 0.40625 8.953125 0.40625 Z M 8.953125 0.40625 "/></g></g></g><g fill="#000000" fill-opacity="1"><g transform="translate(245.517528, 178.477253)"><g><path d="M 5.796875 -24.125 C 4.828125 -24.125 4.035156 -24.421875 3.421875 -25.015625 C 2.804688 -25.609375 2.5 -26.375 2.5 -27.3125 C 2.5 -28.226562 2.804688 -28.984375 3.421875 -29.578125 C 4.035156 -30.171875 4.828125 -30.46875 5.796875 -30.46875 C 6.453125 -30.46875 7.03125 -30.332031 7.53125 -30.0625 C 8.039062 -29.789062 8.4375 -29.414062 8.71875 -28.9375 C 9 -28.457031 9.140625 -27.914062 9.140625 -27.3125 C 9.140625 -26.695312 9 -26.144531 8.71875 -25.65625 C 8.4375 -25.175781 8.039062 -24.800781 7.53125 -24.53125 C 7.03125 -24.257812 6.453125 -24.125 5.796875 -24.125 Z M 3.109375 0 L 3.109375 -21.546875 L 8.515625 -21.546875 L 8.515625 0 Z M 3.109375 0 "/></g></g></g><g fill="#000000" fill-opacity="1"><g transform="translate(257.117956, 178.477253)"><g><path d="M 21.296875 -9.546875 L 7.4375 -9.546875 C 7.59375 -7.671875 8.125 -6.304688 9.03125 -5.453125 C 9.945312 -4.609375 11.195312 -4.1875 12.78125 -4.1875 C 14.007812 -4.1875 15.007812 -4.414062 15.78125 -4.875 C 16.550781 -5.332031 17.171875 -6.03125 17.640625 -6.96875 L 18.046875 -6.96875 L 21.640625 -4.671875 C 20.941406 -3.160156 19.878906 -1.9375 18.453125 -1 C 17.035156 -0.0625 15.144531 0.40625 12.78125 0.40625 C 10.550781 0.40625 8.625 -0.015625 7 -0.859375 C 5.382812 -1.703125 4.132812 -2.960938 3.25 -4.640625 C 2.375 -6.316406 1.9375 -8.359375 1.9375 -10.765625 C 1.9375 -13.210938 2.394531 -15.273438 3.3125 -16.953125 C 4.238281 -18.628906 5.488281 -19.878906 7.0625 -20.703125 C 8.644531 -21.535156 10.421875 -21.953125 12.390625 -21.953125 C 15.429688 -21.953125 17.757812 -21.144531 19.375 -19.53125 C 21 -17.914062 21.8125 -15.546875 21.8125 -12.421875 C 21.8125 -11.285156 21.773438 -10.40625 21.703125 -9.78125 Z M 16.640625 -13.046875 C 16.585938 -14.691406 16.207031 -15.882812 15.5 -16.625 C 14.789062 -17.375 13.753906 -17.75 12.390625 -17.75 C 9.648438 -17.75 8.039062 -16.179688 7.5625 -13.046875 Z M 16.640625 -13.046875 "/></g></g></g><g fill="#000000" fill-opacity="1"><g transform="translate(280.533643, 178.477253)"><g><path d="M 3.109375 0 L 3.109375 -21.546875 L 8.296875 -21.546875 L 8.296875 -18.375 L 8.71875 -18.28125 C 10.050781 -20.726562 12.222656 -21.953125 15.234375 -21.953125 C 17.722656 -21.953125 19.550781 -21.273438 20.71875 -19.921875 C 21.882812 -18.566406 22.46875 -16.59375 22.46875 -14 L 22.46875 0 L 17.046875 0 L 17.046875 -13.34375 C 17.046875 -14.769531 16.757812 -15.800781 16.1875 -16.4375 C 15.613281 -17.070312 14.695312 -17.390625 13.4375 -17.390625 C 11.882812 -17.390625 10.675781 -16.882812 9.8125 -15.875 C 8.945312 -14.875 8.515625 -13.300781 8.515625 -11.15625 L 8.515625 0 Z M 3.109375 0 "/></g></g></g><g fill="#000000" fill-opacity="1"><g transform="translate(305.765552, 178.477253)"><g><path d="M 14.859375 -5.140625 L 16.265625 -1.140625 C 15.679688 -0.648438 14.945312 -0.269531 14.0625 0 C 13.175781 0.269531 12.175781 0.40625 11.0625 0.40625 C 8.726562 0.40625 6.953125 -0.226562 5.734375 -1.5 C 4.523438 -2.769531 3.921875 -4.613281 3.921875 -7.03125 L 3.921875 -17.265625 L 0.640625 -17.265625 L 0.640625 -21.5625 L 3.921875 -21.5625 L 3.921875 -25.765625 L 9.34375 -26.640625 L 9.34375 -21.5625 L 15.453125 -21.5625 L 15.453125 -17.265625 L 9.34375 -17.265625 L 9.34375 -7.421875 C 9.34375 -6.359375 9.5625 -5.582031 10 -5.09375 C 10.445312 -4.601562 11.09375 -4.359375 11.9375 -4.359375 C 12.894531 -4.359375 13.734375 -4.617188 14.453125 -5.140625 Z M 14.859375 -5.140625 "/></g></g></g><g fill="#000000" fill-opacity="1"><g transform="translate(190.14257, 233.977249)"><g><path d="M 8.890625 0 L 3.71875 0 L 3.71875 -28.5625 L 11.09375 -28.5625 L 18.328125 -7.5625 L 18.734375 -7.5625 L 25.921875 -28.5625 L 33.125 -28.5625 L 33.125 0 L 27.78125 0 L 27.78125 -18.875 L 27.28125 -18.953125 L 20.6875 0 L 15.984375 0 L 9.375 -18.953125 L 8.890625 -18.875 Z M 8.890625 0 "/></g></g></g><g fill="#000000" fill-opacity="1"><g transform="translate(226.994443, 233.977249)"><g><path d="M 8.40625 0.40625 C 7.019531 0.40625 5.816406 0.15625 4.796875 -0.34375 C 3.785156 -0.851562 3.003906 -1.597656 2.453125 -2.578125 C 1.910156 -3.566406 1.640625 -4.753906 1.640625 -6.140625 C 1.640625 -7.410156 1.910156 -8.476562 2.453125 -9.34375 C 3.003906 -10.207031 3.851562 -10.914062 5 -11.46875 C 6.144531 -12.03125 7.644531 -12.457031 9.5 -12.75 C 10.78125 -12.957031 11.753906 -13.1875 12.421875 -13.4375 C 13.097656 -13.6875 13.550781 -13.96875 13.78125 -14.28125 C 14.019531 -14.59375 14.140625 -14.988281 14.140625 -15.46875 C 14.140625 -16.15625 13.898438 -16.679688 13.421875 -17.046875 C 12.941406 -17.410156 12.140625 -17.59375 11.015625 -17.59375 C 9.816406 -17.59375 8.675781 -17.328125 7.59375 -16.796875 C 6.519531 -16.265625 5.582031 -15.5625 4.78125 -14.6875 L 4.390625 -14.6875 L 2.125 -18.109375 C 3.21875 -19.316406 4.550781 -20.257812 6.125 -20.9375 C 7.707031 -21.613281 9.429688 -21.953125 11.296875 -21.953125 C 14.140625 -21.953125 16.195312 -21.347656 17.46875 -20.140625 C 18.75 -18.929688 19.390625 -17.210938 19.390625 -14.984375 L 19.390625 -5.625 C 19.390625 -4.664062 19.816406 -4.1875 20.671875 -4.1875 C 20.992188 -4.1875 21.3125 -4.242188 21.625 -4.359375 L 21.890625 -4.28125 L 22.28125 -0.515625 C 21.988281 -0.316406 21.570312 -0.15625 21.03125 -0.03125 C 20.5 0.09375 19.914062 0.15625 19.28125 0.15625 C 17.988281 0.15625 16.976562 -0.0859375 16.25 -0.578125 C 15.53125 -1.078125 15.015625 -1.851562 14.703125 -2.90625 L 14.296875 -2.953125 C 13.242188 -0.710938 11.28125 0.40625 8.40625 0.40625 Z M 10.125 -3.640625 C 11.375 -3.640625 12.367188 -4.054688 13.109375 -4.890625 C 13.859375 -5.734375 14.234375 -6.90625 14.234375 -8.40625 L 14.234375 -10.59375 L 13.875 -10.671875 C 13.539062 -10.410156 13.109375 -10.191406 12.578125 -10.015625 C 12.054688 -9.835938 11.300781 -9.664062 10.3125 -9.5 C 9.144531 -9.300781 8.300781 -8.960938 7.78125 -8.484375 C 7.269531 -8.015625 7.015625 -7.34375 7.015625 -6.46875 C 7.015625 -5.539062 7.285156 -4.835938 7.828125 -4.359375 C 8.378906 -3.878906 9.144531 -3.640625 10.125 -3.640625 Z M 10.125 -3.640625 "/></g></g></g><g fill="#000000" fill-opacity="1"><g transform="translate(249.707072, 233.977249)"><g><path d="M 11.171875 9.140625 C 7.617188 9.140625 4.992188 8.617188 3.296875 7.578125 C 1.609375 6.535156 0.765625 5.082031 0.765625 3.21875 C 0.765625 2.09375 1.125 1.164062 1.84375 0.4375 C 2.570312 -0.28125 3.613281 -0.765625 4.96875 -1.015625 L 4.96875 -1.421875 C 4.238281 -1.867188 3.710938 -2.363281 3.390625 -2.90625 C 3.066406 -3.445312 2.90625 -4.070312 2.90625 -4.78125 C 2.90625 -6.519531 4.035156 -7.6875 6.296875 -8.28125 L 6.296875 -8.6875 C 5.128906 -9.351562 4.253906 -10.175781 3.671875 -11.15625 C 3.085938 -12.144531 2.796875 -13.335938 2.796875 -14.734375 C 2.796875 -16.160156 3.125 -17.414062 3.78125 -18.5 C 4.4375 -19.59375 5.398438 -20.441406 6.671875 -21.046875 C 7.941406 -21.648438 9.460938 -21.953125 11.234375 -21.953125 C 13.023438 -21.953125 14.457031 -21.640625 15.53125 -21.015625 C 16.195312 -21.984375 16.582031 -23.097656 16.6875 -24.359375 L 17.09375 -24.609375 L 20.984375 -23.65625 C 20.859375 -22.625 20.554688 -21.757812 20.078125 -21.0625 C 19.597656 -20.363281 18.847656 -19.742188 17.828125 -19.203125 L 17.828125 -18.765625 C 19.046875 -17.703125 19.65625 -16.210938 19.65625 -14.296875 C 19.65625 -12.972656 19.320312 -11.78125 18.65625 -10.71875 C 17.988281 -9.664062 17.019531 -8.832031 15.75 -8.21875 C 14.476562 -7.613281 12.972656 -7.3125 11.234375 -7.3125 L 10.40625 -7.328125 C 9.882812 -7.347656 9.519531 -7.359375 9.3125 -7.359375 C 8.820312 -7.359375 8.4375 -7.222656 8.15625 -6.953125 C 7.875 -6.691406 7.734375 -6.351562 7.734375 -5.9375 C 7.734375 -5.476562 7.914062 -5.125 8.28125 -4.875 C 8.644531 -4.625 9.179688 -4.484375 9.890625 -4.453125 L 14.703125 -4.28125 C 19.472656 -4.132812 21.859375 -2.082031 21.859375 1.875 C 21.859375 3.269531 21.503906 4.507812 20.796875 5.59375 C 20.085938 6.6875 18.9375 7.550781 17.34375 8.1875 C 15.757812 8.820312 13.703125 9.140625 11.171875 9.140625 Z M 11.234375 -11.09375 C 12.273438 -11.09375 13.085938 -11.398438 13.671875 -12.015625 C 14.253906 -12.628906 14.546875 -13.5 14.546875 -14.625 C 14.546875 -15.757812 14.253906 -16.628906 13.671875 -17.234375 C 13.085938 -17.835938 12.273438 -18.140625 11.234375 -18.140625 C 10.179688 -18.140625 9.367188 -17.835938 8.796875 -17.234375 C 8.222656 -16.628906 7.9375 -15.757812 7.9375 -14.625 C 7.9375 -13.476562 8.222656 -12.601562 8.796875 -12 C 9.367188 -11.394531 10.179688 -11.09375 11.234375 -11.09375 Z M 11.171875 5.21875 C 13.023438 5.21875 14.367188 4.957031 15.203125 4.4375 C 16.046875 3.914062 16.46875 3.238281 16.46875 2.40625 C 16.46875 1.726562 16.25 1.226562 15.8125 0.90625 C 15.382812 0.59375 14.703125 0.421875 13.765625 0.390625 L 9.515625 0.203125 C 9.367188 0.203125 9.234375 0.191406 9.109375 0.171875 C 8.984375 0.160156 8.863281 0.15625 8.75 0.15625 C 7.84375 0.15625 7.148438 0.347656 6.671875 0.734375 C 6.191406 1.128906 5.953125 1.671875 5.953125 2.359375 C 5.953125 3.273438 6.390625 3.976562 7.265625 4.46875 C 8.140625 4.96875 9.441406 5.21875 11.171875 5.21875 Z M 11.171875 5.21875 "/></g></g></g><g fill="#000000" fill-opacity="1"><g transform="translate(272.107232, 233.977249)"><g><path d="M 3.109375 0 L 3.109375 -21.546875 L 8.296875 -21.546875 L 8.296875 -18.375 L 8.71875 -18.28125 C 10.050781 -20.726562 12.222656 -21.953125 15.234375 -21.953125 C 17.722656 -21.953125 19.550781 -21.273438 20.71875 -19.921875 C 21.882812 -18.566406 22.46875 -16.59375 22.46875 -14 L 22.46875 0 L 17.046875 0 L 17.046875 -13.34375 C 17.046875 -14.769531 16.757812 -15.800781 16.1875 -16.4375 C 15.613281 -17.070312 14.695312 -17.390625 13.4375 -17.390625 C 11.882812 -17.390625 10.675781 -16.882812 9.8125 -15.875 C 8.945312 -14.875 8.515625 -13.300781 8.515625 -11.15625 L 8.515625 0 Z M 3.109375 0 "/></g></g></g><g fill="#000000" fill-opacity="1"><g transform="translate(297.339142, 233.977249)"><g><path d="M 21.296875 -9.546875 L 7.4375 -9.546875 C 7.59375 -7.671875 8.125 -6.304688 9.03125 -5.453125 C 9.945312 -4.609375 11.195312 -4.1875 12.78125 -4.1875 C 14.007812 -4.1875 15.007812 -4.414062 15.78125 -4.875 C 16.550781 -5.332031 17.171875 -6.03125 17.640625 -6.96875 L 18.046875 -6.96875 L 21.640625 -4.671875 C 20.941406 -3.160156 19.878906 -1.9375 18.453125 -1 C 17.035156 -0.0625 15.144531 0.40625 12.78125 0.40625 C 10.550781 0.40625 8.625 -0.015625 7 -0.859375 C 5.382812 -1.703125 4.132812 -2.960938 3.25 -4.640625 C 2.375 -6.316406 1.9375 -8.359375 1.9375 -10.765625 C 1.9375 -13.210938 2.394531 -15.273438 3.3125 -16.953125 C 4.238281 -18.628906 5.488281 -19.878906 7.0625 -20.703125 C 8.644531 -21.535156 10.421875 -21.953125 12.390625 -21.953125 C 15.429688 -21.953125 17.757812 -21.144531 19.375 -19.53125 C 21 -17.914062 21.8125 -15.546875 21.8125 -12.421875 C 21.8125 -11.285156 21.773438 -10.40625 21.703125 -9.78125 Z M 16.640625 -13.046875 C 16.585938 -14.691406 16.207031 -15.882812 15.5 -16.625 C 14.789062 -17.375 13.753906 -17.75 12.390625 -17.75 C 9.648438 -17.75 8.039062 -16.179688 7.5625 -13.046875 Z M 16.640625 -13.046875 "/></g></g></g><g fill="#000000" fill-opacity="1"><g transform="translate(320.754828, 233.977249)"><g><path d="M 14.859375 -5.140625 L 16.265625 -1.140625 C 15.679688 -0.648438 14.945312 -0.269531 14.0625 0 C 13.175781 0.269531 12.175781 0.40625 11.0625 0.40625 C 8.726562 0.40625 6.953125 -0.226562 5.734375 -1.5 C 4.523438 -2.769531 3.921875 -4.613281 3.921875 -7.03125 L 3.921875 -17.265625 L 0.640625 -17.265625 L 0.640625 -21.5625 L 3.921875 -21.5625 L 3.921875 -25.765625 L 9.34375 -26.640625 L 9.34375 -21.5625 L 15.453125 -21.5625 L 15.453125 -17.265625 L 9.34375 -17.265625 L 9.34375 -7.421875 C 9.34375 -6.359375 9.5625 -5.582031 10 -5.09375 C 10.445312 -4.601562 11.09375 -4.359375 11.9375 -4.359375 C 12.894531 -4.359375 13.734375 -4.617188 14.453125 -5.140625 Z M 14.859375 -5.140625 "/></g></g></g></svg>